<svg xmlns="http://www.w3.org/2000/svg" viewBox="0 0 52 52.04"><path d="M52 21.67c-.006-5.98-4.85-10.83-10.83-10.84-.2 0-.42 0-.63.06a15.14 15.14 0 0 0-27-4.36H13C5.834 6.535.028 12.324 0 19.48c0 6.47 4.83 13.9 11.33 15l-.38.76a1.09 1.09 0 0 0 0 1.05 1.08 1.08 0 0 0 .8.48 4.77 4.77 0 0 1-.78 1.6 6.51 6.51 0 0 0 0 7.7 4.07 4.07 0 0 1 .91 2.65 1.08 1.08 0 0 0 2.16 0 6.22 6.22 0 0 0-1.26-3.85 4.32 4.32 0 0 1 0-5.3A6.37 6.37 0 0 0 14 36.84h.1a1.1 1.1 0 0 0 1.09-1.09 1 1 0 0 0-.12-.48l-.4-.8a12.07 12.07 0 0 0 6.09-3.19 12.81 12.81 0 0 0 3.22 1l-2.1 2.8a1.08 1.08 0 0 0 .22 1.51 1.11 1.11 0 0 0 .65.22h2.1A6.23 6.23 0 0 1 24 39a8.24 8.24 0 0 0 0 8.66 5.61 5.61 0 0 1 .94 3.25 1.09 1.09 0 0 0 2.17.07v-.07a7.73 7.73 0 0 0-1.23-4.33 6.12 6.12 0 0 1 0-6.51A7.83 7.83 0 0 0 27 36.83h2.24a1.08 1.08 0 0 0 1.09-1.08 1.06 1.06 0 0 0-.22-.65L28 32.3a13.4 13.4 0 0 0 5.26-2.14 10.71 10.71 0 0 0 6.25 4.31l-.4.8a1.09 1.09 0 0 0 .48 1.46 1.17 1.17 0 0 0 .49.11h.12a5.15 5.15 0 0 0 1.2 2.3 2.87 2.87 0 0 1 0 4.05 4.89 4.89 0 0 0-1.32 3.38 1.09 1.09 0 0 0 2.17 0 2.77 2.77 0 0 1 .84-2 5 5 0 0 0 0-6.77 4.4 4.4 0 0 1-.65-1 1.05 1.05 0 0 0 .73-.46 1.11 1.11 0 0 0 0-1.06l-.4-.8C48 33.33 52 27 52 21.67zm-39 10.8c-6 0-10.83-7.1-10.83-13A10.81 10.81 0 0 1 12.28 8.74a15.18 15.18 0 0 0-1.45 6.43 18.87 18.87 0 0 0 7.9 15A9.09 9.09 0 0 1 13 32.48zm11.92 2.17L26 33.22l1.08 1.45zM26 30.33c-7.32 0-13-8.15-13-15.16 0-7.18 5.82-13 13-13s13 5.82 13 13c0 7-5.68 15.16-13 15.16zm15.17 2.15A8 8 0 0 1 35 28.82a19.1 19.1 0 0 0 6.18-13.65 17.15 17.15 0 0 0-.18-2.15h.17a8.67 8.67 0 0 1 8.66 8.67c0 4.85-4 10.8-8.66 10.8zm-20-27a10.84 10.84 0 0 0-5.95 8.5 1.1 1.1 0 0 0 1 1.2h.12a1.08 1.08 0 0 0 1.07-1 8.67 8.67 0 0 1 4.76-6.8 1.1 1.1 0 0 0 .545-1.455 1.1 1.1 0 0 0-1.455-.545zm-14.36 8a8.64 8.64 0 0 0-2.48 6 1.09 1.09 0 0 0 2.17.07v-.07a6.52 6.52 0 0 1 1.86-4.55 1.08 1.08 0 1 0-1.52-1.54z" fill="#f46161" fill-rule="evenodd"/></svg>