<?xml version="1.0" encoding="UTF-8" standalone="no"?>
<svg width="72px" height="51px" viewBox="0 0 72 51" version="1.1" xmlns="http://www.w3.org/2000/svg" xmlns:xlink="http://www.w3.org/1999/xlink">
    <!-- Generator: sketchtool 40.3 (33839) - http://www.bohemiancoding.com/sketch -->
    <title>55CB239E-C43C-4CA1-B8E4-FCD4C45CC6FB</title>
    <desc>Created with sketchtool.</desc>
    <defs></defs>
    <g id="Page-1" stroke="none" stroke-width="1" fill="none" fill-rule="evenodd" opacity="0.800000012">
        <g id="5" transform="translate(-364.000000, -698.000000)">
            <g id="icon-category-6" transform="translate(360.000000, 684.000000)">
                <g id="bed" transform="translate(4.444444, 14.222222)" fill="#F13A3A">
                    <g id="Capa_1">
                        <path d="M67.40986,21.8399888 L67.40986,4.38682862 C67.40986,1.99527127 65.4567724,0.04953576 63.0561782,0.04953576 L8.02184519,0.04953576 C5.62125107,0.04953576 3.66816338,1.99527127 3.66816338,4.38682862 L3.66816338,21.8401709 C1.59424165,22.1545044 0,23.9427089 0,26.0953291 L0,36.8981313 C0,37.652459 0.613858897,38.264007 1.37103685,38.264007 L2.83987432,38.264007 L2.83987432,45.0023273 C2.83987432,45.756655 3.45373322,46.3682031 4.21091117,46.3682031 L6.68590688,46.3682031 L6.68590688,48.9981513 C6.68590688,49.7524789 7.29976578,50.364027 8.05694373,50.364027 C8.81412168,50.364027 9.42798058,49.7524789 9.42798058,48.9981513 L9.42798058,46.3682031 L61.6502256,46.3682031 L61.6502256,48.9981513 C61.6502256,49.7524789 62.2639017,50.364027 63.0212625,50.364027 C63.7786233,50.364027 64.3922993,49.7524789 64.3922993,48.9981513 L64.3922993,46.3682031 L66.8672951,46.3682031 C67.6246558,46.3682031 68.2383319,45.756655 68.2383319,45.0023273 L68.2383319,38.264007 L69.7069866,38.264007 C70.4643473,38.264007 71.0780234,37.652459 71.0780234,36.8981313 L71.0780234,26.0953291 C71.0780234,23.9427089 69.4837818,22.1543223 67.40986,21.8399888 L67.40986,21.8399888 Z M6.41005427,4.38682862 C6.41005427,3.50155903 7.1330477,2.78128723 8.02166238,2.78128723 L63.0559954,2.78128723 C63.9446101,2.78128723 64.6676035,3.50155903 64.6676035,4.38682862 L64.6676035,21.7909993 L59.8534362,21.7909993 C60.8113339,20.7636787 61.7856841,19.683362 62.7947672,18.5274669 C63.2435533,18.0133513 63.2433705,17.2484609 62.7945844,16.7345274 C58.8280834,12.1928995 55.5070666,8.88438424 50.9495573,4.9340895 C50.4336818,4.48681073 49.6657184,4.48681073 49.1496601,4.9340895 C44.591968,8.88456636 41.271134,12.1930816 37.3048158,16.7345274 C36.8560297,17.2484609 36.8558469,18.0133513 37.304633,18.5274669 C38.3138989,19.6835441 39.2880663,20.7638608 40.245964,21.7909993 L30.8309626,21.7909993 C31.7888603,20.7636787 32.7633933,19.683362 33.7724764,18.5274669 C34.2212625,18.0133513 34.2212625,17.2484609 33.7722936,16.7345274 C29.806341,12.193628 26.4853242,8.88511271 21.9272665,4.9340895 C21.411391,4.48681073 20.6434276,4.48681073 20.1273693,4.9340895 C15.5693116,8.88511271 12.2482948,12.193628 8.28234219,16.7345274 C7.83337332,17.2484609 7.83337332,18.0133513 8.28215938,18.5274669 C9.29142531,19.683362 10.2657755,20.7636787 11.2236732,21.7909993 L6.41005427,21.7909993 L6.41005427,4.38682862 L6.41005427,4.38682862 Z M44.0291117,21.7909993 C42.767575,20.5008842 41.4932419,19.1300913 40.1627878,17.6310882 C43.4402971,13.9364854 46.3421422,11.0455639 50.0497915,7.78112088 C53.7574407,11.0453818 56.6592859,13.9364854 59.936978,17.6310882 C58.6067067,19.1300913 57.3321908,20.5008842 56.0706541,21.7909993 L44.0291117,21.7909993 L44.0291117,21.7909993 Z M15.0070037,21.7909993 C13.745467,20.5007021 12.4709512,19.1300913 11.140497,17.6310882 C14.4174579,13.9372139 17.3198515,11.045746 21.0276835,7.78112088 C24.7355156,11.045746 27.6379092,13.9372139 30.91487,17.6310882 C29.5845987,19.1300913 28.3100828,20.5007021 27.0483633,21.7909993 L15.0070037,21.7909993 L15.0070037,21.7909993 Z M65.4962582,43.6364516 L5.58194801,43.6364516 L5.58194801,38.264007 L65.4962582,38.264007 L65.4962582,43.6364516 L65.4962582,43.6364516 Z M68.3359497,35.5322556 L2.74207369,35.5322556 L2.74207369,26.0953291 C2.74207369,25.2282712 3.45025993,24.5227508 4.32077692,24.5227508 L66.7572465,24.5227508 C67.6277635,24.5227508 68.3359497,25.2282712 68.3359497,26.0953291 L68.3359497,35.5322556 L68.3359497,35.5322556 Z" id="Shape"></path>
                    </g>
                </g>
                <rect id="Rectangle-39-Copy" x="0" y="0" width="80" height="80"></rect>
            </g>
        </g>
    </g>
</svg>