<svg id="Capa_1" data-name="Capa 1" xmlns="http://www.w3.org/2000/svg" viewBox="0 0 71.08 51.33"><defs><style>.cls-1{fill:#f46161;}</style></defs><title>scooter</title><path class="cls-1" d="M253.67,240.83a4.7,4.7,0,1,0,4.69,4.7A4.7,4.7,0,0,0,253.67,240.83Zm0,7.07a2.37,2.37,0,1,1,2.37-2.37A2.37,2.37,0,0,1,253.67,247.9Z" transform="translate(-193.83 -203.71)"/><path class="cls-1" d="M264.65,236.38a14.24,14.24,0,0,0-11-5.15,14.62,14.62,0,0,0-2.1.15c-.47-3.06-3.35-7.12-6.13-10.43v-9.86a1.16,1.16,0,0,0-.46-.93,1.18,1.18,0,0,0-1-.2l-1.9.53a5.61,5.61,0,0,0-2.58,1.56l-1-4.59a1.17,1.17,0,0,0-1.14-.91h-2v-1.68a1.16,1.16,0,0,0-2.32,0v5.86a1.16,1.16,0,1,0,2.32,0v-1.85h1.09l1.44,6.59a4.72,4.72,0,0,0-1.21,2.33l-3.34,3.69a1.16,1.16,0,0,0,.86,1.94,1.13,1.13,0,0,0,.86-.38l2-2.22a5,5,0,0,0,.53.85,34.2,34.2,0,0,1,4.34,6.89c1.3,2.89,1.6,5.29.91,7.14-1,2.7-4,4.77-7.9,5.55-4.21.83-8.37,0-10.37-2.2a3.78,3.78,0,0,1-1.2-2.88c.12-1.75,1.68-3.86,4.63-6.26l.24-.27a4.31,4.31,0,0,0-3.53-6.77H207.93a6.14,6.14,0,0,0-6.1,5.63,37.35,37.35,0,0,0-3.8,4.59c-2.79,4-4.2,7.67-4.2,11a1.16,1.16,0,0,0,1.16,1.16h4c0,.09,0,.17,0,.26a9.49,9.49,0,0,0,18.68,2.41h26.84a9.5,9.5,0,1,0,17.13-7.62l2.87-2.29a1.17,1.17,0,0,0,.17-1.65ZM218,225.21h6.74a2,2,0,0,1,1.87,2.64H218Zm-10,0h7.7v2.64H204.31A3.82,3.82,0,0,1,207.93,225.21Zm.53,27.5a7.18,7.18,0,0,1-7.17-7.18v-.26h2.48c0,.09,0,.17,0,.26a4.7,4.7,0,1,0,9.39,0,2.26,2.26,0,0,0,0-.26h2.48c0,.09,0,.17,0,.26A7.18,7.18,0,0,1,208.46,252.71Zm-2.37-7.18a2.26,2.26,0,0,1,0-.26h4.71a2.28,2.28,0,0,1,0,.26,2.37,2.37,0,0,1-4.74,0Zm10-2.59H199a15.09,15.09,0,0,1,2.32-4.32c2.81-3.6,6.91-5.24,12.19-4.87,2.35.16,3.82.78,4.38,1.84C218.63,237,218,239.44,216.08,242.94Zm23.31,2.67H218v-.08a9.11,9.11,0,0,0-.06-1.05c1.8-3.17,3.59-7.1,2.06-10-1-1.81-3.07-2.84-6.26-3.06-7.66-.54-12,2.88-14.26,5.84a17.73,17.73,0,0,0-2.86,5.67h-.35c.67-5.67,5.88-11.36,7.23-12.76h20.79c-2,2.06-3.07,4-3.2,5.84a6.09,6.09,0,0,0,1.82,4.62c2.56,2.76,7.47,3.9,12.52,2.9a16.45,16.45,0,0,0,4.45-1.53,14,14,0,0,0-.44,3.52Zm3.3-32.88.42-.12v5.7c-1.19-1.3-2.21-2.32-2.78-2.89A3.27,3.27,0,0,1,242.69,212.73Zm-3.28,7.5a2.38,2.38,0,0,1-.51-1.8,2.61,2.61,0,0,1,.28-.87c3.38,3.4,9.78,10.58,10.12,14.35a14.15,14.15,0,0,0-3.79,1.89C245.58,230.76,244.25,226.36,239.41,220.23Zm14.26,32.48a7.18,7.18,0,1,1,7.17-7.18A7.18,7.18,0,0,1,253.67,252.71Zm6.43-14.17a9.48,9.48,0,0,0-15.92,7v.08h-2.46a.25.25,0,0,1,0-.08A12,12,0,0,1,262.05,237Z" transform="translate(-193.83 -203.71)"/></svg>