<svg xmlns="http://www.w3.org/2000/svg" width="65" height="72" fill="#f13a3a" fill-rule="evenodd" opacity=".8"><path d="M18.218 59.387c-2.047 0-3.713 1.676-3.713 3.737s1.666 3.737 3.713 3.737 3.713-1.677 3.713-3.737a3.73 3.73 0 0 0-3.713-3.737zm0 4.964c-.672 0-1.22-.55-1.22-1.227s.547-1.227 1.22-1.227 1.22.55 1.22 1.227-.547 1.227-1.22 1.227zm31.965-2.48h-4.356V39.294c0-4.826-3.9-8.753-8.696-8.753H25.758C11.65 30.54.172 42.094.172 56.293v6.832a1.25 1.25 0 0 0 1.247 1.255H10c.604 4.014 4.054 7.1 8.208 7.1s7.604-3.086 8.208-7.1h20.082v5.846a1.25 1.25 0 0 0 1.247 1.255 1.25 1.25 0 0 0 1.247-1.255V64.38h1.18a1.255 1.255 0 1 0 0-2.51zm-31.965 7.1c-3.203 0-5.808-2.623-5.808-5.846s2.606-5.846 5.808-5.846 5.808 2.623 5.808 5.846-2.605 5.846-5.808 5.846zm25.115-7.1H26.427c-.603-4.015-4.054-7.102-8.208-7.102S10.613 57.856 10 61.87H2.666v-5.577c0-12.816 10.36-23.242 23.092-23.242H37.13c3.42 0 6.202 2.8 6.202 6.243V61.87zM64.77 53.5l-8.43-12.933h4.77c.458 0 .88-.253 1.097-.66a1.26 1.26 0 0 0-.055-1.285L55 27.657h2.982c.458 0 .88-.253 1.097-.66a1.26 1.26 0 0 0-.055-1.285l-6.453-9.898h3.338c.458 0 .88-.253 1.097-.66a1.26 1.26 0 0 0-.055-1.285L48.577 1a1.24 1.24 0 0 0-1.042-.566c-.42 0-.812.213-1.042.566l-8.385 12.862a1.26 1.26 0 0 0-.055 1.285 1.25 1.25 0 0 0 1.097.66h3.34l-6.453 9.898a1.26 1.26 0 0 0-.055 1.285 1.25 1.25 0 0 0 1.097.66h2.982l-.352.54a1.26 1.26 0 0 0 .358 1.738 1.24 1.24 0 0 0 1.726-.36l1.62-2.484a1.26 1.26 0 0 0 .055-1.285 1.25 1.25 0 0 0-1.097-.66H39.39l6.453-9.898a1.26 1.26 0 0 0 .055-1.285 1.25 1.25 0 0 0-1.097-.66h-3.34l6.076-9.32 6.076 9.32h-3.338c-.458 0-.88.253-1.097.66a1.26 1.26 0 0 0 .055 1.285l6.453 9.898H52.7c-.458 0-.88.253-1.097.66a1.26 1.26 0 0 0 .055 1.285L58.8 38.047h-4.77c-.458 0-.88.253-1.097.66a1.26 1.26 0 0 0 .055 1.285l8.432 12.932H48.753a1.255 1.255 0 1 0 0 2.51H63.73c.458 0 .88-.253 1.097-.66a1.26 1.26 0 0 0-.055-1.285zm-63-11.517c.2.14.448.206.683.206.406 0 .804-.2 1.043-.567l8.4-12.9a1.26 1.26 0 0 0 .055-1.285 1.25 1.25 0 0 0-1.097-.66H7.892l6.453-9.898a1.26 1.26 0 0 0 .055-1.285 1.25 1.25 0 0 0-1.097-.66h-3.34l6.076-9.32 6.076 9.32h-3.34c-.458 0-.88.253-1.097.66a1.26 1.26 0 0 0 .055 1.285l6.453 9.898h-2.982a1.255 1.255 0 1 0 0 2.51h5.3c.458 0 .88-.253 1.097-.66a1.26 1.26 0 0 0-.055-1.285l-6.453-9.898h3.34c.458 0 .88-.253 1.097-.66a1.26 1.26 0 0 0-.055-1.285L17.082 2.632a1.24 1.24 0 0 0-1.042-.566c-.42 0-.812.213-1.042.566L6.612 15.494a1.26 1.26 0 0 0-.055 1.285 1.25 1.25 0 0 0 1.097.66h3.338L4.54 27.335a1.26 1.26 0 0 0-.055 1.285 1.25 1.25 0 0 0 1.097.66h2.982L1.42 40.235a1.26 1.26 0 0 0 .358 1.738zm23.534-3.62h-8.228c-4.675 0-8.478 3.828-8.478 8.533a1.25 1.25 0 0 0 1.247 1.255h15.46a1.25 1.25 0 0 0 1.247-1.255v-7.278a1.25 1.25 0 0 0-1.247-1.255zm-1.247 7.278H11.232c.575-2.72 2.98-4.768 5.854-4.768h6.982v4.768zm15.71-7.278H30.87a1.25 1.25 0 0 0-1.247 1.255v18.16a1.25 1.25 0 0 0 1.247 1.255h8.905a1.25 1.25 0 0 0 1.247-1.255v-18.16a1.25 1.25 0 0 0-1.247-1.255zM38.53 56.5h-6.4V40.86h6.4V56.5z"/></svg>