<svg id="Layer_1" data-name="Layer 1" xmlns="http://www.w3.org/2000/svg" viewBox="0 0 52.01 49.01"><defs><style>.cls-1{fill:#f46161;}</style></defs><title>education</title><path class="cls-1" d="M266.61,275.28a.87.87,0,0,0-1.05.64l-.86,3.5a.87.87,0,0,0,.63,1.06.75.75,0,0,0,.21,0,.86.86,0,0,0,.84-.66l.86-3.5A.87.87,0,0,0,266.61,275.28Z" transform="translate(-229.99 -231.49)"/><path class="cls-1" d="M256,257.75a.75.75,0,0,0,.33-.07l9.54-4a.88.88,0,0,0-.67-1.62l-9.2,3.85-24.27-10.14v-.29a.87.87,0,1,0-1.74,0v.87a.88.88,0,0,0,.54.81l25.14,10.5A.78.78,0,0,0,256,257.75Z" transform="translate(-229.99 -231.49)"/><path class="cls-1" d="M266.31,266.72a.85.85,0,0,0-1.16-.4,20,20,0,0,1-8.28,1.91v-7.85a.87.87,0,1,0-1.74,0v7.84c-10.76-.35-14.23-6.93-14.73-8v-5.94a.87.87,0,1,0-1.74,0v6.13a.87.87,0,0,0,.06.32c.16.38,3.85,9.3,17.28,9.3a22.15,22.15,0,0,0,9.92-2.11A.87.87,0,0,0,266.31,266.72Z" transform="translate(-229.99 -231.49)"/><path class="cls-1" d="M269,276.13a.86.86,0,0,0-.86.87v2.63a.87.87,0,1,0,1.73,0V277A.87.87,0,0,0,269,276.13Z" transform="translate(-229.99 -231.49)"/><path class="cls-1" d="M281.14,244.62a.87.87,0,0,0-.87.88v.29l-10.4,4.32v-1.58l11.6-4.85a.88.88,0,0,0,0-1.62l-25.14-10.5a.84.84,0,0,0-.66,0l-25.14,10.5a.9.9,0,0,0-.54.81.88.88,0,0,0,.54.81l25.14,10.5a.78.78,0,0,0,.33.07.75.75,0,0,0,.33-.07l9.09-3.79a.89.89,0,0,0,.47-1.15.87.87,0,0,0-1.13-.47L256,252.43l-22.87-9.56L256,233.32l22.87,9.55L268.92,247l-9.53-3.59a2.18,2.18,0,0,0,.08-.57c0-1.47-1.53-2.62-3.47-2.62s-3.47,1.15-3.47,2.62,1.53,2.63,3.47,2.63a4.1,4.1,0,0,0,2.24-.63l9.9,3.73v2.81h0v18.75a2.62,2.62,0,0,0,.86,5.09,2.62,2.62,0,0,0,.87-5.09v-5a10.66,10.66,0,0,0,3.42-4.54.92.92,0,0,0,0-.28v-6.13a.87.87,0,1,0-1.74,0v6a8.89,8.89,0,0,1-1.73,2.65V252l11.6-4.82a.88.88,0,0,0,.54-.81v-.87A.87.87,0,0,0,281.14,244.62ZM256,243.75c-1.06,0-1.73-.52-1.73-.88s.67-.87,1.73-.87,1.73.51,1.73.87S257.06,243.75,256,243.75Zm13,29.75a.88.88,0,0,1,0-1.75.88.88,0,0,1,0,1.75Z" transform="translate(-229.99 -231.49)"/><path class="cls-1" d="M272.44,275.92a.86.86,0,0,0-1.05-.64.88.88,0,0,0-.63,1.06l.87,3.5a.86.86,0,0,0,.84.66.75.75,0,0,0,.21,0,.87.87,0,0,0,.63-1.06Z" transform="translate(-229.99 -231.49)"/></svg>