<svg xmlns="http://www.w3.org/2000/svg" width="72" height="68" fill="#f13a3a" fill-rule="evenodd" opacity=".8"><path d="M71.25 39.2L60.767 3.842C60.4 2.604 59.575 1.584 58.443.97S56 .22 54.777.588L3.9 15.797a4.79 4.79 0 0 0-2.862 2.333 4.82 4.82 0 0 0-.381 3.68L11.13 57.167c.367 1.238 1.192 2.258 2.323 2.872a4.77 4.77 0 0 0 2.285.585c.462 0 .926-.067 1.382-.203l17.84-5.332c.646-.193 1.014-.875.822-1.524a1.22 1.22 0 0 0-1.518-.825l-17.84 5.332c-.6.182-1.25.115-1.8-.188s-.964-.806-1.145-1.416L2.986 21.1c-.18-.6-.114-1.255.187-1.814a2.36 2.36 0 0 1 1.412-1.151l50.887-15.2c.6-.182 1.25-.115 1.8.188s.965.806 1.145 1.416L68.9 39.898a2.39 2.39 0 0 1-1.6 2.965l-2.745.82c-.646.193-1.014.875-.822 1.524a1.22 1.22 0 0 0 1.518.825l2.745-.82c2.546-.76 4-3.458 3.243-6.013zm-10.567 1.98a1.22 1.22 0 0 0 1.518.825l3.384-1a1.22 1.22 0 0 0 .725-.591 1.23 1.23 0 0 0 .096-.933l-9.84-33.193a1.22 1.22 0 0 0-1.518-.825L6.312 20.016c-.646.193-1.014.875-.822 1.524l9.84 33.193a1.22 1.22 0 0 0 1.518.825l14.223-4.25c.646-.193 1.014-.875.822-1.524a1.22 1.22 0 0 0-1.518-.825l-13.053 3.9-9.145-30.844L54.573 8.15l9.145 30.844-2.214.662c-.646.193-1.014.876-.822 1.524z"/><path d="M48.215 26.97a4.66 4.66 0 0 0-3.134-1.764 4.65 4.65 0 0 0-3.458.978l-12.328 9.75c-.985.78-1.61 1.897-1.757 3.147s.198 2.483.974 3.472l18.11 23.08a4.68 4.68 0 0 0 3.693 1.795 4.66 4.66 0 0 0 2.9-1.009l12.328-9.75c.985-.78 1.61-1.897 1.757-3.147s-.198-2.483-.974-3.472l-18.11-23.08zM62.27 48.845l-15.868 12.55-13.895-17.7 15.868-12.55 13.895 17.7zM29.962 39.37a2.25 2.25 0 0 1 .843-1.511l12.328-9.75a2.23 2.23 0 0 1 1.39-.486 2.28 2.28 0 0 1 .27.016c.598.07 1.132.372 1.505.847l.567.722-15.868 12.55-.567-.722c-.372-.475-.538-1.067-.468-1.667zm34.912 13.864a2.25 2.25 0 0 1-.843 1.511l-12.328 9.75a2.25 2.25 0 0 1-3.165-.377l-.626-.798L63.78 50.77l.626.798c.372.475.54 1.067.468 1.667z"/></svg>