<svg id="Layer_1" data-name="Layer 1" xmlns="http://www.w3.org/2000/svg" viewBox="0 0 47.55 47.54"><defs><style>.cls-1{fill:#f46161;stroke:#f46161;stroke-miterlimit:10;stroke-width:0.2px;}</style></defs><title>tools</title><path class="cls-1" d="M277.11,268.21a6.16,6.16,0,0,0-3.26-1.13,58.81,58.81,0,0,1-8.81-6.6L260,255.4,263,252a5.3,5.3,0,0,0,1.84.63,5.93,5.93,0,0,0,1.11.08,1.6,1.6,0,0,1,1.42.55,1.27,1.27,0,0,0-.48,1,1.72,1.72,0,0,0,.48,1.18l2.76,2.76a2.14,2.14,0,0,0,1.65.71,2,2,0,0,0,1.66-.79l5.6-5.6a2.11,2.11,0,0,0,.71-1.65,2.25,2.25,0,0,0-.71-1.66l-2.76-2.76a1.57,1.57,0,0,0-1.1-.47,2,2,0,0,0-1.11.47,1.31,1.31,0,0,1-.63-1.34,3.43,3.43,0,0,0-.16-1.18,5.51,5.51,0,0,0-1.57-3.08L268.91,238a13,13,0,0,0-4.58-3.39c-4.58-2.13-9.23-1.73-16,1.34a.72.72,0,0,0-.47.87.77.77,0,0,0,.79.63h1c3.48,0,5.29,0,8.45,3.16a3.73,3.73,0,0,1,.18,5,.73.73,0,0,0-.42.23l-3.51,3.91-2.65-2.65a34,34,0,0,1-6.53-8.73,6.23,6.23,0,0,0-1.83-4.12,6.5,6.5,0,0,0-5.13-1.82,1,1,0,0,0-.55.4.71.71,0,0,0,0,.79l2.21,3.94a2.78,2.78,0,0,1-2.68,1.58l-2.29-3.79a.7.7,0,0,0-.63-.39.58.58,0,0,0-.63.31,6.34,6.34,0,0,0,4.85,9.76l0,0a34.26,34.26,0,0,1,8.76,6.55l2.88,2.81L233.4,273.17a3.37,3.37,0,0,0-1,2.37,3.17,3.17,0,0,0,1,2.29l1.1,1.1a3.42,3.42,0,0,0,2.21.87,3.3,3.3,0,0,0,2.29-.95l16.75-18.74,4.87,4.86a64.1,64.1,0,0,1,6.62,8.82,6.22,6.22,0,0,0,6.24,5.85h.63a.8.8,0,0,0,.63-.39.71.71,0,0,0,0-.79l-2.28-3.87a2.88,2.88,0,0,1,2.76-1.57l2.21,3.78a.7.7,0,0,0,.63.4,1.08,1.08,0,0,0,.71-.4A6.28,6.28,0,0,0,277.11,268.21Zm-18-28.87c-2.52-2.44-4.42-3.23-6.55-3.47,4.5-1.42,7.81-1.34,11.13.16a10.87,10.87,0,0,1,4.18,3.08l2.84,2.84a3.65,3.65,0,0,1,1.1,2.2,4.5,4.5,0,0,1,.08.95,2.91,2.91,0,0,0,1,2.45,1.75,1.75,0,0,0,1.18.47,1.34,1.34,0,0,0,1.11-.47l2.76,2.76a.69.69,0,0,1,.24.55.72.72,0,0,1-.24.55l-5.6,5.6a.78.78,0,0,1-1.11,0l-2.76-2.76a1.12,1.12,0,0,0,.4-1.11,1.73,1.73,0,0,0-.48-1.18,2.88,2.88,0,0,0-2.44-1,4.46,4.46,0,0,1-.95-.08,3.51,3.51,0,0,1-2.21-1.11l-3.39-3.39A5.21,5.21,0,0,0,259.12,239.34Zm-24.77-1.89,1.65,2.84a.8.8,0,0,0,.63.39h.4a4.49,4.49,0,0,0,4.26-2.44l.16-.39a.59.59,0,0,0,0-.71l-1.74-3a4.68,4.68,0,0,1,2.53,1.34,4.91,4.91,0,0,1,1.36,3.19,1.23,1.23,0,0,0,0,.2,4.75,4.75,0,0,1-.13,1.07,4.88,4.88,0,0,1-2,2.8,4.71,4.71,0,0,1-7.1-5.29Zm14,13.09a34.47,34.47,0,0,0-7.26-5.83,9.87,9.87,0,0,0,1.26-.63,6.19,6.19,0,0,0,2.45-3.08,36.71,36.71,0,0,0,5.76,7.25l2.71,2.71-2.13,2.37ZM237.9,277.67a1.63,1.63,0,0,1-2.29.08l-1.11-1a1.57,1.57,0,0,1-.47-1.1,1.69,1.69,0,0,1,.55-1.26l.45-.5,1.13,1.13a.78.78,0,0,0,1.11,0,.78.78,0,0,0,0-1.11l-1.2-1.19,1.05-1.16,1.25,1.25a.76.76,0,0,0,1.11,0,.77.77,0,0,0,0-1.1l-1.32-1.32,20.29-22.69,3.32,3.31-3.26,3.64a1,1,0,0,0-.26.18l-3.15,3.55a.7.7,0,0,0-.19.3Zm18.93-18.77,2.16-2.41,5.1,5.09a46.16,46.16,0,0,0,7.42,5.76,5.89,5.89,0,0,0-1.42.71,6,6,0,0,0-2.16,2.4l0,0c0,.05-.05.11-.08.17a2.56,2.56,0,0,0-.11.24c0,.06-.05.12-.07.17v0l-.08.18c-.44-.66-.88-1.28-1.29-1.86l1.06-1.06a.78.78,0,0,0-1.11-1.1l-.88.88c-.32-.45-.64-.87-.95-1.26l.73-.72a.78.78,0,0,0-1.11-1.11l-.6.6c-.58-.69-1.11-1.29-1.61-1.78ZM278,274.67l-1.66-2.84a.81.81,0,0,0-.63-.39h-.39a4.36,4.36,0,0,0-4.26,2.44l-.16.4a.59.59,0,0,0,0,.71l1.73,3a4.62,4.62,0,0,1-2.52-1.34,4.86,4.86,0,0,1-1.36-3.12,1.11,1.11,0,0,0,0-.19,4.66,4.66,0,0,1,.87-2.72,4.72,4.72,0,0,1,1.26-1.22,4.4,4.4,0,0,1,2.6-.79,4.73,4.73,0,0,1,2.68.87A4.79,4.79,0,0,1,278,274.67Z" transform="translate(-232.35 -232.36)"/></svg>