<svg xmlns="http://www.w3.org/2000/svg" width="81.2" height="75.3"><path d="M32.2 60a4.7 4.7 0 0 1-3.5-1.5 2.121 2.121 0 1 0-3 3 9.5 9.5 0 0 0 6.5 2.7 9.7 9.7 0 0 0 6.5-2.7 9.2 9.2 0 0 0 2.7-6.5 9.1 9.1 0 0 0-2.7-6.5 7.6 7.6 0 0 0-2.6-1.8l4.7-4.8.3-.6a1.5 1.5 0 0 0 .3-1 2 2 0 0 0-2.1-2H28.4a2 2 0 0 0-2.1 2 2.1 2.1 0 0 0 2.1 2.2h6l-3.8 3.8a2.1 2.1 0 0 0 .1 3 2.1 2.1 0 0 0 1.5.7 4.6 4.6 0 0 1 3.5 1.4 5.1 5.1 0 0 1 1.5 3.6 5.1 5.1 0 0 1-5 5zm22.9-19.8a2.1 2.1 0 0 0-2.1-1.9h-.8c-.1.1-.2.1-.2.2h-.1l-4.5 2.7a2 2 0 0 0-.7 2.8 2.1 2.1 0 0 0 1.7 1 2.3 2.3 0 0 0 1.1-.3l1.5-.8v18.3a1.9 1.9 0 0 0 2 2 2.1 2.1 0 0 0 2.1-2V40.3z" fill="#f46161" fill-rule="evenodd"/><g fill="none" stroke="#f46161" stroke-width="3.75"><path d="M5.6,6.2h70A3.8,3.8,0,0,1,79.4,10V69.7a3.8,3.8,0,0,1-3.7,3.8H5.6a3.7,3.7,0,0,1-3.7-3.7V10A3.8,3.8,0,0,1,5.6,6.2Z"/><path d="M2.2 27.6h77.1"/></g><g fill="#f46161"><rect x="21.9" width="4.1" height="12.63" rx="2.1"/><path d="M55.6 0a2.1 2.1 0 0 1 2.1 2.1v8.5a2 2 0 0 1-2.1 2 2 2 0 0 1-2-2V2.1a2 2 0 0 1 2-2.1z" fill-rule="evenodd"/></g></svg>