<svg xmlns="http://www.w3.org/2000/svg" viewBox="0 0 81.23 75.33"><path d="M32.14 60a4.91 4.91 0 0 1-3.51-1.44 2.12 2.12 0 1 0-3 3A9.19 9.19 0 0 0 41.35 55a9.08 9.08 0 0 0-2.7-6.48 8.64 8.64 0 0 0-2.59-1.81l4.66-4.8a2.38 2.38 0 0 0 .37-.51 2.22 2.22 0 0 0 .26-1 2.09 2.09 0 0 0-2.11-2.08h-10.9a2.09 2.09 0 1 0 0 4.18h6l-3.78 3.8a2.1 2.1 0 0 0 .07 3 1.86 1.86 0 0 0 1.52.67 5 5 0 0 1 3.51 1.47A4.83 4.83 0 0 1 37.17 55a5 5 0 0 1-1.48 3.55A5.07 5.07 0 0 1 32.14 60zm22.9-19.77a2 2 0 0 0-2-2 2.13 2.13 0 0 0-.75.15l-.26.14-4.53 2.7a2.08 2.08 0 0 0 1.08 3.81 1.85 1.85 0 0 0 1-.3l1.36-.72v18.2a2 2 0 0 0 2 2 2.06 2.06 0 0 0 2.06-2V40.25z" fill="#f46161" fill-rule="evenodd"/><g fill="none" stroke="#f46161" stroke-width="3.75"><rect x="1.88" y="6.22" width="77.48" height="67.24" rx="3.75"/><path d="M2.15 27.62h77.1"/></g><g fill="#f46161"><rect x="21.86" width="4.15" height="12.63" rx="2.07"/><path d="M55.6 0a2.08 2.08 0 0 1 2.08 2.07v8.5a2.08 2.08 0 0 1-2.08 2.07 2.07 2.07 0 0 1-2.07-2.07v-8.5a2.07 2.07 0 0 1 .606-1.464A2.07 2.07 0 0 1 55.59 0z" fill-rule="evenodd"/></g></svg>