<svg xmlns="http://www.w3.org/2000/svg" width="96.5" height="56.1"><g fill="#f46161" stroke-miterlimit="10" fill-rule="evenodd" stroke="#f46161"><path d="M40.3 23.7a6.2 6.2 0 0 0 6.2 6.2h3.1a3.2 3.2 0 0 1 0 6.3h-3.1a3.1 3.1 0 0 1-3.1-3.2 1.6 1.6 0 0 0-1.7-1.5h.2a1.6 1.6 0 0 0-1.6 1.5 6.3 6.3 0 0 0 6.2 6.3v1.5a1.6 1.6 0 0 0 1.6 1.6H48a1.6 1.6 0 0 0 1.6-1.6v-1.5a6.3 6.3 0 0 0 0-12.5h-3.1a3.2 3.2 0 0 1-.8-6.2l-.7-3a6.2 6.2 0 0 0-4.7 6.1zm12.4 0a1.6 1.6 0 0 0 1.6 1.5h-.1a1.6 1.6 0 0 0 1.6-1.5 6.2 6.2 0 0 0-4.7-6.1l-.8 3a3.2 3.2 0 0 1 2.4 3.1z"/><path d="M52.7 23.7a3.1 3.1 0 0 0-3.1-3.1h-3.1a3.1 3.1 0 0 0-3.1 3.1h-3.1a6.3 6.3 0 0 1 6.2-6.3v-1.5a1.6 1.6 0 0 1 1.6-1.6H48a1.6 1.6 0 0 1 1.6 1.6v1.5a6.3 6.3 0 0 1 6.2 6.3c0 1.7-3.1 1.7-3.1 0zm0 9.4v-1.6l3.1 1.6a6.1 6.1 0 0 1-4.7 6l-.8-3a3.1 3.1 0 0 0 2.4-3z"/></g><g fill="none" stroke-width="3"><rect x="1.5" y="1.5" width="93.5" height="53.13" rx="1.6" stroke="#f46161"/><ellipse cx="48.2" cy="28.6" rx="16.9" ry="17.1" stroke="#f46161"/><path d="M80.5 7.8a8.4 8.4 0 0 0 8.3 8.4m-8.3 32.5a8.4 8.4 0 0 1 8.3-8.4M15.6 7.8a8.4 8.4 0 0 1-8.3 8.4m8.3 32.5a8.4 8.4 0 0 0-8.3-8.4" stroke="#f46161"/><path d="M14 9.3h68.1M14 47.2h68.1M8.9 14.6v27.3m78.3-27.3v27.3" stroke="#f46161"/></g></svg>