<svg xmlns="http://www.w3.org/2000/svg" viewBox="0 0 79 79"><path d="M41.264 58.185h-6.7c-8.5 0-15.2-6.6-15.2-15 0-1 .8-1.9 1.9-1.9 1 0 1.9.8 1.9 1.9 0 6.3 5.1 11.3 11.5 11.3h6.7c6.5 0 11.5-4.8 11.5-11 0-1 .8-1.9 1.9-1.9s1.9.8 1.9 1.9c-.2 8.2-6.8 14.7-15.4 14.7zm-12-31c-.5 0-.9-.2-1.3-.5-1.8-1.8-4.7-1.8-6.4-.1-.7.7-1.9.7-2.6 0s-.7-1.9 0-2.6c3.1-3.1 8.4-3.1 11.6.1.7.7.7 1.9 0 2.6-.4.3-.9.5-1.3.5zm25.2 0c-.5 0-1-.2-1.3-.5-1.8-1.8-4.7-1.8-6.4-.1-.7.7-1.9.7-2.6 0s-.7-1.9 0-2.6c3.1-3.1 8.4-3.1 11.6.1.7.7.7 1.9 0 2.6-.3.3-.8.5-1.3.5z" fill-rule="evenodd" fill="#f46161"/><ellipse fill="none" stroke="#f46161" stroke-width="3.75" cx="37.9" cy="38" rx="35.9" ry="36"/></svg>