<svg xmlns="http://www.w3.org/2000/svg" viewBox="0 0 75.52 87.31" fill="#f46161" fill-rule="evenodd"><path d="M75.5 22.8v-.47a1.07 1.07 0 0 0-.07-.19v-.06a.17.17 0 0 0-.08-.17 1.37 1.37 0 0 0-.13-.2l-.14-.16-.14-.12a1.37 1.37 0 0 0-.2-.13L38.67.27a2 2 0 0 0-2 0L.6 21.26l-.15.12-.14.16a1.43 1.43 0 0 0-.14.2.89.89 0 0 0-.08.17v.1l-.06.2v42.4a2 2 0 0 0 1 1.71l35.65 20.83.22.1.22.07h1.07l.22-.07a1.51 1.51 0 0 0 .22-.11l35.9-20.86a2 2 0 0 0 1-1.71V22.84a.07.07 0 0 1-.02-.04zM37.67 41.4l-14-8.14 31.9-18.57 14 8.14zm0-37.14l14 8.14-32 18.6-14-8.16zm33.9 59.15L39.67 82v-8a2 2 0 1 0-4 0v8L3.78 63.42V26.28L35.7 44.85V66a2 2 0 1 0 4 0V44.84l31.83-18.56v37.14zM50.25 49a2 2 0 0 0 1.71 1 2 2 0 0 0 1-.27l7.25-4.22a2 2 0 0 0-1.43-3.72 2.17 2.17 0 0 0-.53.31L51 46.3a2 2 0 0 0-.75 2.69z"/></svg>