<svg xmlns="http://www.w3.org/2000/svg" viewBox="0 0 100 25" fill="#fff"><path d="M21.844 8.972c0 2.366-.743 4.432-2.227 6.197s-3.564 2.65-6.24 2.65c-1.207 0-2.87-.05-5-.15l.16-8.5-.16-7.76h2.14l1.566-.038 1.358-.038c2.944 0 5.08.75 6.404 2.25s1.988 3.3 1.988 5.398zm-3.34.537c0-1.6-.457-2.947-1.37-4.042s-2.308-1.643-4.184-1.643c-.35 0-.832.038-1.443.113l.123 5.223.122 5.922a7.97 7.97 0 0 0 1.6.163c1.753 0 3.052-.557 3.896-1.668s1.266-2.47 1.266-4.068zm19.312 1.95c0 2.098-.632 3.74-1.896 4.922a6.32 6.32 0 0 1-4.465 1.774c-1.63 0-3.03-.54-4.196-1.618s-1.75-2.597-1.75-4.554c0-2.107.636-3.757 1.908-4.948s2.765-1.787 4.478-1.787c1.623 0 3.016.543 4.178 1.63s1.743 2.616 1.743 4.58zm-3.192.375c0-1.208-.277-2.222-.832-3.042s-1.276-1.23-2.166-1.23c-.864 0-1.568.383-2.1 1.15s-.813 1.724-.813 2.874c0 1.208.277 2.22.832 3.042s1.276 1.23 2.166 1.23c.864 0 1.568-.384 2.1-1.15s.813-1.725.813-2.875zm19.066-.375c0 2.098-.632 3.74-1.896 4.922a6.32 6.32 0 0 1-4.466 1.774c-1.63 0-3.03-.54-4.196-1.618s-1.75-2.597-1.75-4.554c0-2.107.636-3.757 1.908-4.948s2.765-1.787 4.478-1.787c1.623 0 3.016.543 4.178 1.63s1.744 2.616 1.744 4.58zm-3.192.375c0-1.208-.277-2.222-.832-3.042S48.4 7.56 47.5 7.56c-.864 0-1.568.383-2.1 1.15s-.813 1.724-.813 2.874c0 1.208.277 2.22.832 3.042s1.276 1.23 2.166 1.23c.864 0 1.568-.384 2.1-1.15s.813-1.725.813-2.875zm18.482 5.822l-2.9.1c-.058-.292-.086-.596-.086-.912H65.8c-.897.8-2.043 1.187-3.438 1.187-1.566 0-2.8-.58-3.73-1.736s-1.383-2.532-1.383-4.124c0-1.824.502-3.413 1.505-4.767s2.398-2.03 4.185-2.03c1.158 0 2.026.22 2.605.663h.17L65.443.1l3.463-.1-.196 8.372.27 9.283zM65.9 14.82l-.184-6.597c-.563-.4-1.235-.6-2.02-.6-1.076 0-1.876.408-2.397 1.224s-.783 1.816-.783 3c0 1.05.253 1.955.76 2.717a2.39 2.39 0 0 0 2.104 1.144c1.2 0 2.04-.295 2.52-.887zm10.992-9.283l-.172 7.522.05 2.68.05 2.28c0 3.074-1.203 4.856-3.6 5.35l-.893-1.75c.578-.475.972-1.173 1.18-2.093s.313-2.86.313-5.816c0-3.356-.146-5.964-.44-7.82l3.522-.35zm.538-3.524c0 .566-.2 1.062-.575 1.487s-.913.637-1.6.637c-.57 0-1.018-.183-1.34-.55s-.483-.808-.483-1.324a2.1 2.1 0 0 1 .575-1.475c.385-.417.917-.625 1.603-.625.58 0 1.025.182 1.34.544a1.92 1.92 0 0 1 .47 1.306zm14.077 15.643l-2.888.1c-.13-.35-.195-.667-.195-.95h-.16c-.897.783-2.108 1.175-3.634 1.175-1.02 0-1.865-.3-2.538-.868s-1-1.348-1-2.306c0-1.267.523-2.302 1.57-3.1s2.886-1.237 5.512-1.287a3.77 3.77 0 0 0 .024-.425c0-.9-.212-1.493-.636-1.78s-1.203-.43-2.337-.43c-1.23 0-2.435.167-3.6.5l.27-2.3c1.108-.392 2.675-.587 4.697-.587 1.477 0 2.616.317 3.42.95s1.205 1.74 1.205 3.324l-.043 1.912-.043 1.85c0 1.72.13 3.133.392 4.232zm-3.267-2.598l-.073-2.9c-2.78 0-4.172.72-4.172 2.16 0 1 .6 1.487 1.835 1.487.963 0 1.765-.246 2.4-.737z"/></svg>