<svg xmlns="http://www.w3.org/2000/svg" width="263" height="47" fill-rule="evenodd"><path d="M52.573 12.578a15.75 15.75 0 0 0-3.742-.961 16.22 16.22 0 0 1 .535 4.113c.027 5.234-2.192 13.566-5.372 20.295-1.844 3.872-3.876 6.97-6.04 9.186.267.187.56.374.882.48.08.027.187.08.267.107l.16.053c.08.053.187.08.267.107.535.214 1.096.32 1.737.32 6.735 0 16.92-11.697 19.297-17.652 2.405-6.115-1.176-13.326-7.992-16.05zM46.72 15.73a13.76 13.76 0 0 0-.668-4.193c-4.704.347-8.686 3.07-10.344 7.103-1.203 2.938-2.218 9.106-1.844 15.222.24 4.06 1.07 7.264 2.352 9.373 1.898-2.003 3.715-4.834 5.4-8.36C45 27.745 46.748 19.84 46.72 15.728zM9.034 17.118c-.535.134-1.042.32-1.577.507-5.773 2.323-8.793 8.412-6.762 13.593 2.005 5.1 10.7 15.088 16.438 15.088.508 0 1-.08 1.417-.267.08-.027.134-.053.214-.08l.16-.053c.08-.027.16-.053.214-.08.4-.16.775-.4 1.123-.72-2.1-2.216-4.1-5.26-5.907-9.053-2.913-6.195-4.998-13.7-5.32-18.934zm3.074-.4h-.428c.214 4.3 1.95 11.536 5.105 18.132 1.577 3.285 3.287 5.982 5.052 7.958.802-1.762 1.336-4.166 1.523-7.077.32-5.234-.56-10.495-1.577-13.005-1.523-3.632-5.32-6-9.675-6zm21.142.908c1.95-4.727 6.415-7.958 11.733-8.652-2.833-5.26-8.847-8.92-15.77-8.92-9.007 0-16.464 6.142-17.453 13.993h.347c5.426 0 10.183 3.018 12.108 7.664 1.363 3.3 2.085 9.133 1.764 14.18-.24 3.685-.962 6.676-2.165 8.84 0 0 4.57 4.7 10.397.267-1.657-2.5-2.7-6.25-2.993-11.002-.374-5.822.454-12.55 2.03-16.37z" fill="#da1309"/><path d="M92.103 35.678V23.394c0-1.095-.347-2.03-1.07-2.83s-1.764-1.202-3.1-1.202c-2.78 0-4.17 1.362-4.17 4.06v12.284H82V23.42c0-1.202-.4-2.163-1.203-2.884a4.21 4.21 0 0 0-2.967-1.175c-1.176 0-2.165.374-2.967 1.122-.802.72-1.203 1.682-1.203 2.938v12.284h-1.764V17.892h1.764v1.763c.855-1.362 2.245-2.03 4.17-2.03 2.3 0 3.982.935 5.078 2.804 1.042-1.87 2.726-2.804 5.052-2.804 1.8 0 3.207.507 4.303 1.495 1.096 1.04 1.63 2.457 1.63 4.273v12.284h-1.8zm21.863-2.378c-1.8 1.8-3.956 2.67-6.548 2.67s-4.758-.88-6.522-2.617c-1.8-1.8-2.673-3.952-2.673-6.543 0-2.564.882-4.727 2.673-6.516 1.764-1.816 3.93-2.724 6.522-2.724 2.566 0 4.73.88 6.522 2.67s2.673 3.952 2.673 6.543c-.027 2.617-.9 4.78-2.646 6.516zM112.7 21.498c-1.443-1.47-3.207-2.2-5.292-2.2-2.005 0-3.742.748-5.212 2.243-1.497 1.495-2.245 3.258-2.245 5.26 0 2.03.722 3.792 2.192 5.26s3.207 2.2 5.265 2.2a7.18 7.18 0 0 0 5.265-2.163c1.47-1.47 2.192-3.23 2.192-5.287-.027-2.1-.722-3.872-2.165-5.314zm28.582 14.18V23.394c0-1.095-.347-2.03-1.07-2.83s-1.764-1.202-3.1-1.202c-2.78 0-4.17 1.362-4.17 4.06v12.284h-1.764V23.42c0-1.202-.4-2.163-1.203-2.884a4.21 4.21 0 0 0-2.967-1.175c-1.176 0-2.165.374-2.967 1.122-.802.72-1.203 1.682-1.203 2.938v12.284h-1.764V17.892h1.764v1.763c.855-1.362 2.245-2.03 4.17-2.03 2.3 0 3.982.935 5.078 2.804 1.016-1.87 2.7-2.804 5.025-2.804 1.8 0 3.207.507 4.303 1.495 1.096 1.04 1.63 2.457 1.63 4.273v12.284h-1.764zm7.804-9.268c0 2.403.64 4.326 1.95 5.74 1.363 1.442 3.207 2.163 5.56 2.163 1.203 0 2.3-.214 3.288-.614 1.23-.507 2.352-1.576 3.314-3.15l1.604.72c-1.123 2.136-2.833 3.552-5.185 4.3-.882.294-1.898.427-3.02.427-2.673 0-4.864-.88-6.602-2.617-1.764-1.762-2.62-3.952-2.62-6.596 0-2.67.855-4.86 2.593-6.596 1.764-1.762 3.956-2.617 6.628-2.617 2.646 0 4.838.828 6.548 2.457 1.764 1.63 2.62 3.765 2.62 6.382h-16.678zm12.16-5.635c-1.363-.988-2.913-1.47-4.65-1.47-3.688 0-6.094 1.816-7.243 5.42h14.433c-.267-1.63-1.123-2.937-2.54-3.952zm20.61 14.903V25.05c0-3.765-1.684-5.635-5.078-5.635-1.657 0-2.94.48-3.795 1.47-.882.988-1.336 2.323-1.336 4.006v10.815h-1.764V17.892h1.764v2.163c.802-1.576 2.512-2.377 5.132-2.377 2.218 0 3.902.64 5.078 1.896s1.764 3.018 1.764 5.288v10.815h-1.764zm10.13-16.023v16.023h-1.764V19.655h-2.405v-1.763h2.405v-7.798h1.764v7.798h4.143v1.763zm21.036 16.023v-3.07c-1.87 2.243-4.25 3.365-7.1 3.365-2.593 0-4.758-.88-6.522-2.617-1.8-1.8-2.673-3.952-2.673-6.543s.882-4.753 2.62-6.516c1.8-1.8 3.956-2.67 6.548-2.67 2.833 0 5.212 1.122 7.1 3.365v-3.098h1.764V35.68h-1.737zm-1.844-14.127c-1.47-1.47-3.207-2.2-5.265-2.2a7.18 7.18 0 0 0-5.265 2.163c-1.47 1.47-2.192 3.23-2.192 5.288 0 2.03.722 3.792 2.192 5.26s3.207 2.2 5.265 2.2a7.18 7.18 0 0 0 5.265-2.163c1.47-1.47 2.192-3.23 2.192-5.287s-.722-3.792-2.192-5.26zm17.292-1.04c-.454-.347-.935-.614-1.47-.828-.508-.214-1.07-.294-1.63-.294-.48 0-.935.16-1.4.454-.428.294-.802.668-1.123 1.122a5.6 5.6 0 0 0-.748 1.495 4.54 4.54 0 0 0-.267 1.495v11.723h-1.764V17.892h1.764v2.403c.374-.668.855-1.255 1.47-1.816.615-.534 1.256-.828 1.978-.828.882 0 1.63.107 2.192.294.588.214 1.23.56 1.95 1.068l-.962 1.495zm6.174-5.795c-.32 0-.64-.134-1-.4-.267-.267-.4-.614-.428-1.04 0-.774.48-1.255 1.417-1.415.722 0 1.203.48 1.417 1.415 0 .96-.48 1.442-1.417 1.442zm-.9 20.963V17.892h1.764v17.785h-1.764zm5.988 0V3.792h1.737v31.885zm11.038 8.358h-1.978l4.624-9.987-7.5-16.156h1.898l6.628 14.047 6.548-14.047h1.95z" fill="#fff"/></svg>