<svg xmlns="http://www.w3.org/2000/svg" width="52" height="72"><defs><filter id="A" x="0" y="11.031" width="52" height="48.969" filterUnits="userSpaceOnUse"><feFlood flood-color="#f13a3a"/><feComposite operator="in" in2="SourceGraphic"/><feBlend in2="SourceGraphic"/></filter></defs><path d="M36.6 54.78a.864.864 0 0 0-1.05.636l-.867 3.5a.874.874 0 0 0 .631 1.061.835.835 0 0 0 .211.026.868.868 0 0 0 .84-.662l.867-3.5a.876.876 0 0 0-.632-1.061zM26 37.26a.851.851 0 0 0 .331-.066l9.533-3.98a.877.877 0 0 0 .469-1.142.866.866 0 0 0-1.133-.471L26 35.44 1.733 25.306v-.3a.867.867 0 1 0-1.733 0v.874a.874.874 0 0 0 .536.808l25.133 10.5a.85.85 0 0 0 .331.062zm10.3 8.96a.862.862 0 0 0-1.16-.4 20.048 20.048 0 0 1-8.283 1.907v-7.843a.867.867 0 1 0-1.733 0v7.838C14.372 47.376 10.9 40.8 10.4 39.7v-5.94a.867.867 0 1 0-1.733 0v6.122a.892.892 0 0 0 .062.325c.15.38 3.84 9.293 17.27 9.293a22.106 22.106 0 0 0 9.917-2.113.876.876 0 0 0 .393-1.166zm2.7 9.407a.87.87 0 0 0-.867.875v2.624a.867.867 0 1 0 1.733 0V56.5a.87.87 0 0 0-.866-.873zM51.133 24.14a.87.87 0 0 0-.867.874v.285l-10.4 4.32v-1.58l11.6-4.844a.878.878 0 0 0 0-1.616l-25.134-10.5a.86.86 0 0 0-.662 0L.536 21.584a.877.877 0 0 0 0 1.616L25.67 33.7a.857.857 0 0 0 .662 0l9.088-3.8a.876.876 0 0 0 .47-1.142.864.864 0 0 0-1.132-.473L26 31.94l-22.867-9.55L26 12.843l22.867 9.55-9.95 4.155-9.53-3.59a2.1 2.1 0 0 0 .081-.564c0-1.47-1.523-2.624-3.467-2.624s-3.467 1.153-3.467 2.624 1.523 2.624 3.467 2.624a4.161 4.161 0 0 0 2.243-.623l9.9 3.727v21.546a2.6 2.6 0 1 0 1.733 0V44.7a10.625 10.625 0 0 0 3.419-4.531.891.891 0 0 0 .048-.286v-6.12a.867.867 0 1 0-1.733 0v5.96a8.958 8.958 0 0 1-1.733 2.642V31.516l11.6-4.816a.874.874 0 0 0 .533-.81v-.874a.87.87 0 0 0-.867-.875zM26 23.266c-1.058 0-1.733-.518-1.733-.875s.675-.875 1.733-.875 1.733.518 1.733.875-.675.875-1.733.875zM39 53a.875.875 0 1 1 .867-.875A.872.872 0 0 1 39 53zm3.44 2.41a.866.866 0 0 0-1.05-.636.875.875 0 0 0-.631 1.061l.867 3.5a.868.868 0 0 0 .84.662.836.836 0 0 0 .211-.026.875.875 0 0 0 .631-1.061z" fill-rule="evenodd" opacity=".8" filter="url(#A)"/></svg>