<svg xmlns="http://www.w3.org/2000/svg" width="52" height="72" fill="#f13a3a" fill-rule="evenodd" opacity=".8"><path d="M21.088 37.393h-7.67V2.948h4.74c.604 3.825 3.93 6.76 7.927 6.76s7.323-2.935 7.927-6.76h4.738V22.12c0 .7.56 1.252 1.254 1.252a1.25 1.25 0 0 0 1.254-1.252v-3.375l2.7 1.347a1.25 1.25 0 0 0 .56.132c.397 0 .783-.188 1.025-.53l6.02-8.513a1.25 1.25 0 0 0-.222-1.684L40.8.74a1.25 1.25 0 0 0-.807-.295h-27.84a1.25 1.25 0 0 0-.808.295L.828 9.497a1.25 1.25 0 0 0-.222 1.684l6.02 8.513c.242.342.63.53 1.025.53.2 0 .38-.043.56-.132l2.7-1.347v19.9c0 .7.56 1.252 1.254 1.252h8.924c.693 0 1.254-.56 1.254-1.252s-.562-1.252-1.254-1.252zm23.026-20.02l-2.857-1.426V4.37l7.587 6.312-4.73 6.7zm-18.03-10.17c-2.6 0-4.802-1.82-5.372-4.256h10.744c-.57 2.436-2.76 4.256-5.372 4.256zM8.053 17.37l-4.73-6.7 7.587-6.3v11.576L8.053 17.37zm42.28 7.456H25.118c-.693 0-1.254.56-1.254 1.252v44.115c0 .7.56 1.252 1.254 1.252h9.656c.665 0 1.215-.52 1.252-1.183l1.698-30.505 1.698 30.505c.037.663.587 1.183 1.252 1.183h9.656c.693 0 1.254-.56 1.254-1.252V26.078a1.25 1.25 0 0 0-1.254-1.252zm-1.254 5.306h-3.954V27.33h3.954v2.802zm-16.243 0V27.33h9.78v2.802h-9.78zm-2.508-2.802v2.802h-3.954V27.33h3.954zm11.536 41.6l-1.705-30.614c-.037-.663-.587-1.183-1.252-1.183h-2.36c-.665 0-1.215.52-1.252 1.183L33.6 68.94h-7.216V32.636H49.08V68.94h-7.216z"/></svg>