<svg id="Capa_1" data-name="Capa 1" xmlns="http://www.w3.org/2000/svg" viewBox="0 0 100 69"><defs><style>.cls-1{fill:#f46161;}</style></defs><title>delivery-truck</title><path class="cls-1" d="M277.31,261.5a9.28,9.28,0,1,0,9.08,9.28A9.18,9.18,0,0,0,277.31,261.5Zm0,14.43a5.16,5.16,0,1,1,0-10.31,5.16,5.16,0,0,1,0,10.31Zm2.36-45.32a2,2,0,0,0-1.37-.54H267.86a2.06,2.06,0,0,0-2,2.06V249a2.05,2.05,0,0,0,2,2.06h16.57a2.05,2.05,0,0,0,2-2.06V237.72a2.1,2.1,0,0,0-.67-1.53ZM282.4,247H269.89v-12.8h7.62l4.89,4.46ZM227.58,261.5a9.28,9.28,0,1,0,9.08,9.28A9.22,9.22,0,0,0,227.58,261.5Zm0,14.43a5.16,5.16,0,1,1,0-10.31,5.16,5.16,0,0,1,0,10.31ZM214,264h-4.09v-5.49a2,2,0,1,0-4.08,0v7.55a2.06,2.06,0,0,0,2,2.06H214a2.06,2.06,0,0,0,0-4.12Zm10.32-11.24a2.05,2.05,0,0,0-2-2.06h-24.7a2.07,2.07,0,0,0,0,4.13h24.7A2,2,0,0,0,224.32,252.8Zm-22.6-7.44,24.7.15a2.07,2.07,0,0,0,2.06-2,2,2,0,0,0-2-2.08l-24.7-.15h0a2.06,2.06,0,0,0,0,4.12Zm4.15-9.35h24.7a2.06,2.06,0,0,0,0-4.12h-24.7a2.06,2.06,0,0,0,0,4.12Zm88.93-2.78h0L280.22,221a2.06,2.06,0,0,0-1.31-.47H261.77v-7.42a2.06,2.06,0,0,0-2-2.06H207.87a2.06,2.06,0,0,0-2,2.06V228.2a2,2,0,1,0,4.08,0v-13h47.81V264H241a2.06,2.06,0,0,0,0,4.12h24.86a2.06,2.06,0,0,0,0-4.12h-4.09V224.65H278.2l13.28,11.13L291.33,264h-2.11a2.06,2.06,0,0,0,0,4.12h4.13a2,2,0,0,0,2-2l.16-31.25A2.19,2.19,0,0,0,294.8,233.23Z" transform="translate(-195.55 -211.05)"/></svg>