<svg id="Capa_1" data-name="Capa 1" xmlns="http://www.w3.org/2000/svg" viewBox="0 0 76 69"><defs><style>.cls-1{fill:#f46161;}</style></defs><title>credit-cards-payment</title><path class="cls-1" d="M341.1,281.61l-46.55-10a3.67,3.67,0,0,0-4.34,2.87l-.88,5.79L343,291.82l.89-5.79A3.74,3.74,0,0,0,341.1,281.61Z" transform="translate(-268 -271.5)"/><path class="cls-1" d="M321.52,293.05a3.68,3.68,0,0,0-4.54-2.62l-8.84,2.49-20.83-4.49-2.29,11-14.32,4a3.8,3.8,0,0,0-2.57,4.64l8.07,29.6a3.69,3.69,0,0,0,4.55,2.62L327,327.28a3.78,3.78,0,0,0,2.57-4.63l-1.39-5.08,5.19,1.12a3.68,3.68,0,0,0,4.34-2.88L341,300l-18.69-4Zm5.35,15,1.14-5.51a1.51,1.51,0,0,1,1.78-1.18l5.41,1.17a1.53,1.53,0,0,1,1.16,1.82l-1.14,5.5a1.51,1.51,0,0,1-1.78,1.19L328,309.91A1.53,1.53,0,0,1,326.87,308.09Zm-55.36-1.63,12.8-3.62,30.22-8.54,3.25-.92.18,0a.69.69,0,0,1,.66.51l.38,1.4,1.2,4.39L272.61,313.1,271,307.32A.71.71,0,0,1,271.51,306.46Zm55.18,17a.73.73,0,0,1-.07.53.68.68,0,0,1-.41.33l-46.27,13.08-.18,0a.69.69,0,0,1-.66-.51l-4.7-17.27L322,306.2l2.9,10.65Z" transform="translate(-268 -271.5)"/><path class="cls-1" d="M287.42,324.65a1.52,1.52,0,0,0-1.86-1.07l-5.4,1.53a1.55,1.55,0,0,0-1.05,1.89l1.5,5.5a1.5,1.5,0,0,0,1.86,1.07l5.4-1.53a1.53,1.53,0,0,0,1.05-1.88Z" transform="translate(-268 -271.5)"/></svg>