<?xml version="1.0" encoding="UTF-8" standalone="no"?>
<svg width="62px" height="72px" viewBox="0 0 62 72" version="1.1" xmlns="http://www.w3.org/2000/svg" xmlns:xlink="http://www.w3.org/1999/xlink">
    <!-- Generator: sketchtool 40.3 (33839) - http://www.bohemiancoding.com/sketch -->
    <title>6E20E8DE-CC67-46AE-A77E-A932B9DFBDD2</title>
    <desc>Created with sketchtool.</desc>
    <defs></defs>
    <g id="Page-1" stroke="none" stroke-width="1" fill="none" fill-rule="evenodd" opacity="0.800000012">
        <g id="5" transform="translate(-688.000000, -688.000000)">
            <g id="icon-category-4" transform="translate(679.000000, 684.000000)">
                <g id="stove" transform="translate(9.777778, 4.444444)" fill="#F13A3A">
                    <g id="Capa_1">
                        <g id="Group">
                            <path d="M49.9256643,20.9786408 L1.21644444,20.9786408 C0.55043026,20.9786408 0.0107706856,21.5582309 0.0107706856,22.2731392 L0.0107706856,69.8166127 C0.0107706856,70.531521 0.55043026,71.1111111 1.21644444,71.1111111 L49.9256643,71.1111111 C50.5916785,71.1111111 51.1313381,70.531521 51.1313381,69.8166127 L51.1313381,22.2731392 C51.1313381,21.5582309 50.5916785,20.9786408 49.9256643,20.9786408 L49.9256643,20.9786408 Z M48.7199905,68.5221143 L2.4221182,68.5221143 L2.4221182,23.5676375 L48.7199905,23.5676375 L48.7199905,68.5221143 L48.7199905,68.5221143 Z" id="Shape"></path>
                            <path d="M5.46009456,66.5549946 L45.6820142,66.5549946 C46.3480284,66.5549946 46.8876879,65.9754045 46.8876879,65.2604962 L46.8876879,26.8294283 C46.8876879,26.11452 46.3480284,25.5349299 45.6820142,25.5349299 L5.46009456,25.5349299 C4.79408038,25.5349299 4.2544208,26.11452 4.2544208,26.8294283 L4.2544208,65.2603236 C4.2544208,65.9754045 4.79408038,66.5549946 5.46009456,66.5549946 L5.46009456,66.5549946 Z M6.66576832,28.1239266 L44.4763404,28.1239266 L44.4763404,63.9658252 L6.66576832,63.9658252 L6.66576832,28.1239266 L6.66576832,28.1239266 Z" id="Shape"></path>
                            <path d="M38.8553286,38.8075081 L12.2867801,38.8075081 C11.620766,38.8075081 11.0811064,39.3870982 11.0811064,40.1020065 L11.0811064,57.5345847 C11.0811064,58.249493 11.620766,58.8290831 12.2867801,58.8290831 L38.8553286,58.8290831 C39.5213428,58.8290831 40.0610024,58.249493 40.0610024,57.5345847 L40.0610024,40.1020065 C40.0610024,39.3870982 39.5213428,38.8075081 38.8553286,38.8075081 L38.8553286,38.8075081 Z M37.6496548,56.2400863 L13.4924539,56.2400863 L13.4924539,41.3965049 L37.6496548,41.3965049 L37.6496548,56.2400863 L37.6496548,56.2400863 Z" id="Shape"></path>
                            <path d="M42.333617,30.4873355 C41.6676028,30.4873355 41.1279433,31.0669256 41.1279433,31.7818339 L41.1279433,33.4588134 L11.1212955,33.4588134 L11.1212955,31.7818339 C11.1212955,31.0669256 10.5816359,30.4873355 9.91562175,30.4873355 C9.24960757,30.4873355 8.70994799,31.0669256 8.70994799,31.7818339 L8.70994799,34.7533118 C8.70994799,35.4682201 9.24960757,36.0478101 9.91562175,36.0478101 L42.333617,36.0478101 C42.9996312,36.0478101 43.5392908,35.4682201 43.5392908,34.7533118 L43.5392908,31.7818339 C43.5392908,31.0669256 42.9994704,30.4873355 42.333617,30.4873355 L42.333617,30.4873355 Z" id="Shape"></path>
                            <path d="M1.47799527,6.15473571 L2.30187234,6.15473571 L2.30187234,16.4245955 C2.30187234,18.4079396 3.80478487,20.021575 5.65203783,20.021575 L19.0755272,20.021575 C20.9227801,20.021575 22.4256927,18.4079396 22.4256927,16.4245955 L22.4256927,6.15473571 L23.2495697,6.15473571 C23.9155839,6.15473571 24.4552435,5.57514563 24.4552435,4.86023732 C24.4552435,4.14532902 23.9155839,3.56573894 23.2495697,3.56573894 L13.2003593,3.56573894 L13.2003593,1.29449838 C13.2003593,0.579590076 12.6606998,0 11.9946856,0 C11.3286714,0 10.7890118,0.579590076 10.7890118,1.29449838 L10.7890118,3.56573894 L1.47799527,3.56573894 C0.811981087,3.56573894 0.272321513,4.14532902 0.272321513,4.86023732 C0.272321513,5.57514563 0.812141844,6.15473571 1.47799527,6.15473571 L1.47799527,6.15473571 Z M20.0143452,6.15473571 L20.0143452,16.4245955 C20.0143452,16.9803668 19.5931631,17.4325782 19.0755272,17.4325782 L5.65203783,17.4325782 C5.13440189,17.4325782 4.71321986,16.9803668 4.71321986,16.4245955 L4.71321986,6.15473571 L20.0143452,6.15473571 L20.0143452,6.15473571 Z" id="Shape"></path>
                            <path d="M59.228,12.2007335 L29.7073191,12.2007335 C29.339669,12.2007335 28.9922742,12.3807551 28.7635177,12.6897087 C28.5347612,12.998835 28.4498818,13.402891 28.5326714,13.7874434 L29.6618251,19.019288 C29.7885012,19.6059547 30.2752719,20.021575 30.8364728,20.021575 L46.2903168,20.021575 C46.8511962,20.021575 47.3382884,19.6061273 47.4649645,19.019288 L48.3780615,14.7897303 L59.228,14.7897303 C59.8940142,14.7897303 60.4336738,14.2101402 60.4336738,13.4952319 C60.4336738,12.7803236 59.8938534,12.2007335 59.228,12.2007335 L59.228,12.2007335 Z M45.3320473,17.4325782 L31.7947423,17.4325782 L31.2242175,14.7897303 L45.9025721,14.7897303 L45.3320473,17.4325782 L45.3320473,17.4325782 Z" id="Shape"></path>
                            <path d="M17.742695,47.4385329 L33.3994137,47.4385329 C34.0654279,47.4385329 34.6050875,46.8589428 34.6050875,46.1440345 C34.6050875,45.4291262 34.0654279,44.8495361 33.3994137,44.8495361 L17.742695,44.8495361 C17.0766809,44.8495361 16.5370213,45.4291262 16.5370213,46.1440345 C16.5370213,46.8589428 17.0768416,47.4385329 17.742695,47.4385329 L17.742695,47.4385329 Z" id="Shape"></path>
                            <path d="M17.742695,52.787055 L33.3994137,52.787055 C34.0654279,52.787055 34.6050875,52.2074649 34.6050875,51.4925566 C34.6050875,50.7776483 34.0654279,50.1980583 33.3994137,50.1980583 L17.742695,50.1980583 C17.0766809,50.1980583 16.5370213,50.7776483 16.5370213,51.4925566 C16.5370213,52.2074649 17.0768416,52.787055 17.742695,52.787055 L17.742695,52.787055 Z" id="Shape"></path>
                        </g>
                    </g>
                </g>
                <rect id="Rectangle-39-Copy-3" x="0" y="0" width="80" height="80"></rect>
            </g>
        </g>
    </g>
</svg>