<svg xmlns="http://www.w3.org/2000/svg" width="72" height="52" fill="#f13a3a" fill-rule="evenodd" opacity=".8"><path d="M60.272 37.502c-2.587 0-4.692 2.1-4.692 4.7s2.105 4.7 4.692 4.7 4.692-2.1 4.692-4.7-2.105-4.7-4.692-4.7zm0 7.074c-1.306 0-2.37-1.064-2.37-2.373s1.062-2.373 2.37-2.373 2.37 1.064 2.37 2.373-1.062 2.373-2.37 2.373zM71.246 33.05c-2.725-3.273-6.725-5.15-10.974-5.15a14.31 14.31 0 0 0-2.096.154c-.472-3.064-3.348-7.12-6.136-10.437v-9.86c0-.363-.17-.706-.458-.926a1.16 1.16 0 0 0-1.013-.196l-1.894.523a5.57 5.57 0 0 0-2.58 1.562L45.1 4.136c-.116-.535-.6-.917-1.135-.917h-2.028V1.54c0-.643-.52-1.164-1.162-1.164a1.16 1.16 0 0 0-1.162 1.164V7.4c0 .643.52 1.164 1.162 1.164A1.16 1.16 0 0 0 41.937 7.4V5.546h1.092l1.43 6.596a4.71 4.71 0 0 0-1.201 2.335l-3.344 3.683c-.432.476-.397 1.212.078 1.644a1.16 1.16 0 0 0 1.642-.078l2.02-2.223a4.79 4.79 0 0 0 .534.845c1.316 1.666 3.137 4.214 4.338 6.895 1.295 2.9 1.6 5.294.9 7.142-1 2.697-3.964 4.772-7.903 5.55-4.205.83-8.37-.055-10.363-2.205-.878-.947-1.27-1.888-1.202-2.874.123-1.755 1.68-3.862 4.628-6.26.004-.003.24-.27.244-.274a4.32 4.32 0 0 0 .293-4.428c-.74-1.44-2.206-2.337-3.824-2.337H14.544c-3.207 0-5.844 2.482-6.102 5.63-.668.68-2.227 2.347-3.8 4.587-2.787 3.97-4.2 7.675-4.2 11.012 0 .643.52 1.164 1.162 1.164H5.58l-.005.256c0 5.244 4.258 9.5 9.492 9.5 4.404 0 8.117-3.02 9.183-7.103H51.1c1.067 4.082 4.78 7.103 9.183 7.103 5.234 0 9.492-4.266 9.492-9.5 0-1.922-.574-3.7-1.556-5.208l2.87-2.3a1.16 1.16 0 0 0 .432-.793c.032-.313-.064-.623-.264-.864zM24.568 21.882h6.74a1.94 1.94 0 0 1 1.757 1.074 1.94 1.94 0 0 1 .108 1.57h-8.607v-2.644zm-10.024 0h7.7v2.644h-11.32a3.81 3.81 0 0 1 3.619-2.644zm.524 27.503c-3.953 0-7.168-3.222-7.168-7.18 0-.086.002-.17.005-.256h2.477a4.86 4.86 0 0 0-.007.256c0 2.592 2.105 4.7 4.692 4.7s4.693-2.1 4.693-4.7a4.86 4.86 0 0 0-.007-.256h2.478l.005.256c0 3.96-3.216 7.18-7.168 7.18zm-2.37-7.18a2.41 2.41 0 0 1 .014-.256h4.7c.01.085.014.17.014.256 0 1.308-1.062 2.373-2.37 2.373s-2.37-1.065-2.37-2.373zm9.994-2.585H5.623a15.22 15.22 0 0 1 2.32-4.322c2.805-3.606 6.908-5.246 12.2-4.873 2.342.165 3.813.783 4.373 1.838.732 1.378.122 3.852-1.814 7.358zm23.302 2.664H24.56c0-.026.002-.052.002-.08 0-.353-.02-.706-.06-1.053 1.8-3.163 3.6-7.098 2.058-9.983-.96-1.8-3.068-2.84-6.262-3.066-7.657-.54-11.976 2.882-14.25 5.847-1.684 2.193-2.507 4.44-2.865 5.67H2.84c.662-5.68 5.87-11.37 7.227-12.765h20.78c-2.014 2.06-3.064 3.986-3.194 5.838-.115 1.642.496 3.197 1.817 4.622 2.56 2.762 7.472 3.902 12.515 2.905 1.635-.323 3.134-.848 4.45-1.538a14.31 14.31 0 0 0-.44 3.523c0 .026.002.052.002.08zm3.3-32.884l.423-.117v5.694a84.88 84.88 0 0 0-2.781-2.885c.18-1.27 1.098-2.344 2.36-2.692zm-3.283 7.5a2.4 2.4 0 0 1-.501-1.797 2.43 2.43 0 0 1 .28-.87c3.373 3.4 9.778 10.58 10.115 14.35a14.23 14.23 0 0 0-3.791 1.887c.066-3.034-1.26-7.44-6.103-13.57zm14.262 32.482c-3.953 0-7.168-3.222-7.168-7.18s3.216-7.18 7.168-7.18 7.168 3.222 7.168 7.18-3.216 7.18-7.168 7.18zm6.433-14.166c-1.693-1.566-3.953-2.525-6.433-2.525-5.234 0-9.492 4.266-9.492 9.5 0 .026.002.052.002.08H48.32c0-.026-.002-.052-.002-.08 0-6.603 5.362-11.976 11.954-11.976a11.92 11.92 0 0 1 8.382 3.436l-1.95 1.555z"/></svg>