<svg xmlns="http://www.w3.org/2000/svg" width="52" height="51"><path d="M3 38.5a7.3 7.3 0 0 1 3.5-1.2 61.9 61.9 0 0 0 9.7-7.1l5.6-5.5-3.4-3.7a4.8 4.8 0 0 1-2 .7h-1.2a1.7 1.7 0 0 0-1.6.6c.4.2.5.6.5 1.1a1.8 1.8 0 0 1-.5 1.2l-3 3a2.5 2.5 0 0 1-1.8.8 2.5 2.5 0 0 1-1.9-.9l-6.1-6a2.3 2.3 0 0 1-.8-1.7A2.5 2.5 0 0 1 .8 18l3-2.9a1.5 1.5 0 0 1 1.2-.5 2.1 2.1 0 0 1 1.3.5 1.4 1.4 0 0 0 .6-1.5 6.9 6.9 0 0 1 .2-1.3A5.7 5.7 0 0 1 8.9 9L12 6a13.9 13.9 0 0 1 5-3.7C22 0 27.1.5 34.6 3.8a.7.7 0 0 1 .5.9.9.9 0 0 1-.9.7h-1.1c-3.8 0-5.8 0-9.3 3.4a4 4 0 0 0-.2 5.4c.2.1.4.1.5.3l3.9 4.2 2.9-2.9A36.4 36.4 0 0 0 38 6.4 6.7 6.7 0 0 1 40 2a7.2 7.2 0 0 1 5.7-2 1.3 1.3 0 0 1 .6.5.6.6 0 0 1 0 .8l-2.4 4.2a2.8 2.8 0 0 0 2.9 1.7l2.5-4a.8.8 0 0 1 .7-.5.7.7 0 0 1 .7.4 6.6 6.6 0 0 1-1.7 9.2h-.1a6.8 6.8 0 0 1-3.5 1.3h-.1a36.8 36.8 0 0 0-9.6 7.1l-3.2 3L51 43.9a3.7 3.7 0 0 1 1 2.5 3.9 3.9 0 0 1-1 2.5l-1.3 1.2a3.4 3.4 0 0 1-2.4.9 3.9 3.9 0 0 1-2.5-1L26.4 29.8 21.1 35a72.8 72.8 0 0 0-7.3 9.5 6.7 6.7 0 0 1-2 4.4 7.1 7.1 0 0 1-4.9 1.9h-.6a.7.7 0 0 1-.7-.4.6.6 0 0 1 0-.8l2.5-4.2A3.3 3.3 0 0 0 5 43.7l-2.4 4.1a.8.8 0 0 1-.7.4 1.2 1.2 0 0 1-.8-.4A6.8 6.8 0 0 1 3 38.5zM22.7 7.4c2.8-2.6 4.9-3.5 7.2-3.7-4.9-1.5-8.6-1.5-12.2.2-2.1.8-2.8 1.5-4.6 3.3l-3.1 3a3.9 3.9 0 0 0-1.2 2.4 3.4 3.4 0 0 0-.1 1 3.5 3.5 0 0 1-1.1 2.7 2.4 2.4 0 0 1-1.3.5 1.9 1.9 0 0 1-1.3-.5l-3 2.9a.9.9 0 0 0 0 1.2l6.2 6a.8.8 0 0 0 1.2.1l3-2.9a1.1 1.1 0 0 1-.4-1.2 2.1 2.1 0 0 1 .5-1.3 3.2 3.2 0 0 1 2.7-1.1h1a3.7 3.7 0 0 0 2.4-1.2l3.8-3.8a5.6 5.6 0 0 1 .3-7.6zm27.2-2l-1.8 3c-.1.3-.4.4-.7.5H47a5 5 0 0 1-4.7-2.7l-.2-.4a.6.6 0 0 1 0-.8L44 1.8a4.9 4.9 0 0 0-2.7 1.5 4.5 4.5 0 0 0-1.5 3.4v.2a4.9 4.9 0 0 0 .1 1.2 5.5 5.5 0 0 0 2.2 3 5.3 5.3 0 0 0 5.8-.1 5.1 5.1 0 0 0 2-5.6zM34.5 19.5a34.8 34.8 0 0 1 8-6.3 6.1 6.1 0 0 1-1.4-.7 6.7 6.7 0 0 1-2.7-3.3 39.9 39.9 0 0 1-6.3 7.8l-3 2.9 2.3 2.6zM46 48.7a1.8 1.8 0 0 0 2.5.1l1.2-1.1a1.4 1.4 0 0 0 .6-1.2 2 2 0 0 0-.6-1.4l-.5-.5-1.3 1.2a.7.7 0 0 1-1.2 0 .8.8 0 0 1 0-1.1l1.3-1.4-1.1-1.2-1.4 1.3a.8.8 0 0 1-1.2.1.8.8 0 0 1-.1-1.1h.1l1.4-1.5-22.3-24.5-3.6 3.6 3.6 3.9.3.2 3.4 3.8.2.3zM25.2 28.5l-2.3-2.6-5.6 5.5a55.2 55.2 0 0 1-8.2 6.2l1.6.7a7.1 7.1 0 0 1 2.3 2.6h.1v.2l.2.2v.2h.1v.2l1.5-2-1.2-1.1a.9.9 0 0 1 0-1.2.9.9 0 0 1 1.2 0l1 .9 1-1.3-.8-.8a.8.8 0 0 1 0-1.1.9.9 0 0 1 1.2 0l.7.7a18 18 0 0 1 1.8-2zM2 45.5l1.8-3.1a1 1 0 0 1 .7-.4H5a4.7 4.7 0 0 1 4.6 2.6l.2.5a.5.5 0 0 1 0 .7L7.9 49a4.4 4.4 0 0 0 2.8-1.4 5.3 5.3 0 0 0 1.5-3.4.3.3 0 0 1-.1-.2 5.2 5.2 0 0 0-.9-2.9 5.7 5.7 0 0 0-1.4-1.3 4.8 4.8 0 0 0-2.9-.9 5.3 5.3 0 0 0-2.9 1 5.1 5.1 0 0 0-2 5.6z" fill="#f46161" fill-rule="evenodd"/></svg>